<svg xmlns="http://www.w3.org/2000/svg" xmlns:xlink="http://www.w3.org/1999/xlink" width="600" zoomAndPan="magnify" viewBox="0 0 450 337.499995" height="450" preserveAspectRatio="xMidYMid meet" version="1.0"><defs><clipPath id="f962f8ecbf"><path d="M 62.289062 168.5 L 148.597656 168.5 L 148.597656 254.808594 L 62.289062 254.808594 Z M 62.289062 168.5 " clip-rule="nonzero"/></clipPath><clipPath id="40a2e61cd0"><path d="M 105.445312 168.5 C 81.609375 168.5 62.289062 187.820312 62.289062 211.65625 C 62.289062 235.488281 81.609375 254.808594 105.445312 254.808594 C 129.277344 254.808594 148.597656 235.488281 148.597656 211.65625 C 148.597656 187.820312 129.277344 168.5 105.445312 168.5 " clip-rule="nonzero"/></clipPath><clipPath id="c823ae3bb3"><path d="M 219.8125 49.875 L 285.296875 49.875 L 285.296875 115.359375 L 219.8125 115.359375 Z M 219.8125 49.875 " clip-rule="nonzero"/></clipPath><clipPath id="cd95a7b5db"><path d="M 252.554688 49.875 C 234.472656 49.875 219.8125 64.53125 219.8125 82.617188 C 219.8125 100.699219 234.472656 115.359375 252.554688 115.359375 C 270.636719 115.359375 285.296875 100.699219 285.296875 82.617188 C 285.296875 64.53125 270.636719 49.875 252.554688 49.875 " clip-rule="nonzero"/></clipPath><clipPath id="a6e66261b2"><path d="M 164.703125 59.050781 L 251.011719 59.050781 L 251.011719 145.359375 L 164.703125 145.359375 Z M 164.703125 59.050781 " clip-rule="nonzero"/></clipPath><clipPath id="20989e143f"><path d="M 207.859375 59.050781 C 184.023438 59.050781 164.703125 78.371094 164.703125 102.207031 C 164.703125 126.039062 184.023438 145.359375 207.859375 145.359375 C 231.691406 145.359375 251.011719 126.039062 251.011719 102.207031 C 251.011719 78.371094 231.691406 59.050781 207.859375 59.050781 " clip-rule="nonzero"/></clipPath><clipPath id="9fd4035b14"><path d="M 246.925781 53.421875 L 320.425781 53.421875 L 320.425781 126.921875 L 246.925781 126.921875 Z M 246.925781 53.421875 " clip-rule="nonzero"/></clipPath><clipPath id="9674495278"><path d="M 283.675781 53.421875 C 263.378906 53.421875 246.925781 69.875 246.925781 90.171875 C 246.925781 110.46875 263.378906 126.921875 283.675781 126.921875 C 303.972656 126.921875 320.425781 110.46875 320.425781 90.171875 C 320.425781 69.875 303.972656 53.421875 283.675781 53.421875 " clip-rule="nonzero"/></clipPath><clipPath id="4426f0f241"><path d="M 361.125 172.742188 L 434.625 172.742188 L 434.625 246.242188 L 361.125 246.242188 Z M 361.125 172.742188 " clip-rule="nonzero"/></clipPath><clipPath id="331fe4bf9c"><path d="M 397.875 172.742188 C 377.578125 172.742188 361.125 189.195312 361.125 209.492188 C 361.125 229.789062 377.578125 246.242188 397.875 246.242188 C 418.171875 246.242188 434.625 229.789062 434.625 209.492188 C 434.625 189.195312 418.171875 172.742188 397.875 172.742188 " clip-rule="nonzero"/></clipPath><clipPath id="a32f3b63b8"><path d="M 92.757812 124.148438 L 155.15625 124.148438 L 155.15625 186.546875 L 92.757812 186.546875 Z M 92.757812 124.148438 " clip-rule="nonzero"/></clipPath><clipPath id="b34c092bd1"><path d="M 123.957031 124.148438 C 106.726562 124.148438 92.757812 138.117188 92.757812 155.347656 C 92.757812 172.578125 106.726562 186.546875 123.957031 186.546875 C 141.1875 186.546875 155.15625 172.578125 155.15625 155.347656 C 155.15625 138.117188 141.1875 124.148438 123.957031 124.148438 " clip-rule="nonzero"/></clipPath><clipPath id="1e5eb5491f"><path d="M 111.613281 265.222656 L 174.011719 265.222656 L 174.011719 327.621094 L 111.613281 327.621094 Z M 111.613281 265.222656 " clip-rule="nonzero"/></clipPath><clipPath id="2b3a8d7668"><path d="M 142.8125 265.222656 C 125.582031 265.222656 111.613281 279.191406 111.613281 296.421875 C 111.613281 313.652344 125.582031 327.621094 142.8125 327.621094 C 160.046875 327.621094 174.011719 313.652344 174.011719 296.421875 C 174.011719 279.191406 160.046875 265.222656 142.8125 265.222656 " clip-rule="nonzero"/></clipPath><clipPath id="d30a6e2982"><path d="M 188.613281 39.808594 L 251.011719 39.808594 L 251.011719 102.207031 L 188.613281 102.207031 Z M 188.613281 39.808594 " clip-rule="nonzero"/></clipPath><clipPath id="5859293434"><path d="M 219.8125 39.808594 C 202.582031 39.808594 188.613281 53.777344 188.613281 71.007812 C 188.613281 88.238281 202.582031 102.207031 219.8125 102.207031 C 237.042969 102.207031 251.011719 88.238281 251.011719 71.007812 C 251.011719 53.777344 237.042969 39.808594 219.8125 39.808594 " clip-rule="nonzero"/></clipPath><clipPath id="7f8e50cbec"><path d="M 136.296875 172.742188 L 174.011719 172.742188 L 174.011719 210.457031 L 136.296875 210.457031 Z M 136.296875 172.742188 " clip-rule="nonzero"/></clipPath><clipPath id="3ae9aae0cb"><path d="M 155.15625 172.742188 C 144.742188 172.742188 136.296875 181.1875 136.296875 191.601562 C 136.296875 202.015625 144.742188 210.457031 155.15625 210.457031 C 165.570312 210.457031 174.011719 202.015625 174.011719 191.601562 C 174.011719 181.1875 165.570312 172.742188 155.15625 172.742188 " clip-rule="nonzero"/></clipPath><clipPath id="6e2dd82998"><path d="M 351.632812 90.285156 L 444.113281 90.285156 L 444.113281 182.765625 L 351.632812 182.765625 Z M 351.632812 90.285156 " clip-rule="nonzero"/></clipPath><clipPath id="865e4c45cf"><path d="M 397.875 90.285156 C 372.335938 90.285156 351.632812 110.988281 351.632812 136.527344 C 351.632812 162.0625 372.335938 182.765625 397.875 182.765625 C 423.410156 182.765625 444.113281 162.0625 444.113281 136.527344 C 444.113281 110.988281 423.410156 90.285156 397.875 90.285156 " clip-rule="nonzero"/></clipPath><clipPath id="15b8b109be"><path d="M 246.925781 211.65625 L 339.40625 211.65625 L 339.40625 304.136719 L 246.925781 304.136719 Z M 246.925781 211.65625 " clip-rule="nonzero"/></clipPath><clipPath id="6640f08e82"><path d="M 293.164062 211.65625 C 267.628906 211.65625 246.925781 232.359375 246.925781 257.894531 C 246.925781 283.433594 267.628906 304.136719 293.164062 304.136719 C 318.703125 304.136719 339.40625 283.433594 339.40625 257.894531 C 339.40625 232.359375 318.703125 211.65625 293.164062 211.65625 " clip-rule="nonzero"/></clipPath><clipPath id="9e4c6e0056"><path d="M 18.683594 248.75 L 74.070312 248.75 L 74.070312 304.136719 L 18.683594 304.136719 Z M 18.683594 248.75 " clip-rule="nonzero"/></clipPath><clipPath id="edf226b631"><path d="M 46.375 248.75 C 31.082031 248.75 18.683594 261.148438 18.683594 276.441406 C 18.683594 291.738281 31.082031 304.136719 46.375 304.136719 C 61.671875 304.136719 74.070312 291.738281 74.070312 276.441406 C 74.070312 261.148438 61.671875 248.75 46.375 248.75 " clip-rule="nonzero"/></clipPath><clipPath id="47c7d83fb2"><path d="M 328.796875 199.425781 L 384.183594 199.425781 L 384.183594 254.808594 L 328.796875 254.808594 Z M 328.796875 199.425781 " clip-rule="nonzero"/></clipPath><clipPath id="d64a462c76"><path d="M 356.488281 199.425781 C 341.195312 199.425781 328.796875 211.824219 328.796875 227.117188 C 328.796875 242.410156 341.195312 254.808594 356.488281 254.808594 C 371.785156 254.808594 384.183594 242.410156 384.183594 227.117188 C 384.183594 211.824219 371.785156 199.425781 356.488281 199.425781 " clip-rule="nonzero"/></clipPath><clipPath id="77dd46bd69"><path d="M 220.070312 160.859375 L 263.882812 160.859375 L 263.882812 204.671875 L 220.070312 204.671875 Z M 220.070312 160.859375 " clip-rule="nonzero"/></clipPath><clipPath id="0c8bc4e2a3"><path d="M 241.976562 160.859375 C 229.875 160.859375 220.070312 170.667969 220.070312 182.765625 C 220.070312 194.867188 229.875 204.671875 241.976562 204.671875 C 254.074219 204.671875 263.882812 194.867188 263.882812 182.765625 C 263.882812 170.667969 254.074219 160.859375 241.976562 160.859375 " clip-rule="nonzero"/></clipPath><clipPath id="f5735ffe2f"><path d="M 166.84375 225.730469 L 225 225.730469 L 225 283.890625 L 166.84375 283.890625 Z M 166.84375 225.730469 " clip-rule="nonzero"/></clipPath><clipPath id="5f6865e33c"><path d="M 195.921875 225.730469 C 179.859375 225.730469 166.84375 238.75 166.84375 254.808594 C 166.84375 270.871094 179.859375 283.890625 195.921875 283.890625 C 211.980469 283.890625 225 270.871094 225 254.808594 C 225 238.75 211.980469 225.730469 195.921875 225.730469 " clip-rule="nonzero"/></clipPath><clipPath id="74fbe6d3eb"><path d="M 356.488281 7.304688 L 399.058594 7.304688 L 399.058594 49.875 L 356.488281 49.875 Z M 356.488281 7.304688 " clip-rule="nonzero"/></clipPath><clipPath id="cc9f6337c6"><path d="M 377.773438 7.304688 C 366.019531 7.304688 356.488281 16.832031 356.488281 28.589844 C 356.488281 40.34375 366.019531 49.875 377.773438 49.875 C 389.53125 49.875 399.058594 40.34375 399.058594 28.589844 C 399.058594 16.832031 389.53125 7.304688 377.773438 7.304688 " clip-rule="nonzero"/></clipPath><clipPath id="d63c149f3b"><path d="M 105.445312 3.558594 L 184.5 3.558594 L 184.5 82.617188 L 105.445312 82.617188 Z M 105.445312 3.558594 " clip-rule="nonzero"/></clipPath><clipPath id="6d690fcac3"><path d="M 144.972656 3.558594 C 123.140625 3.558594 105.445312 21.257812 105.445312 43.085938 C 105.445312 64.917969 123.140625 82.617188 144.972656 82.617188 C 166.804688 82.617188 184.5 64.917969 184.5 43.085938 C 184.5 21.257812 166.804688 3.558594 144.972656 3.558594 " clip-rule="nonzero"/></clipPath><clipPath id="4a2c8af03c"><path d="M 9.21875 43.929688 L 101.699219 43.929688 L 101.699219 136.410156 L 9.21875 136.410156 Z M 9.21875 43.929688 " clip-rule="nonzero"/></clipPath><clipPath id="f8bccdd188"><path d="M 55.460938 43.929688 C 29.921875 43.929688 9.21875 64.632812 9.21875 90.171875 C 9.21875 115.707031 29.921875 136.410156 55.460938 136.410156 C 80.996094 136.410156 101.699219 115.707031 101.699219 90.171875 C 101.699219 64.632812 80.996094 43.929688 55.460938 43.929688 " clip-rule="nonzero"/></clipPath></defs><g clip-path="url(#f962f8ecbf)"><g clip-path="url(#40a2e61cd0)"><path fill="#e3933d" d="M 62.289062 168.5 L 148.597656 168.5 L 148.597656 254.808594 L 62.289062 254.808594 Z M 62.289062 168.5 " fill-opacity="1" fill-rule="nonzero"/></g></g><g clip-path="url(#c823ae3bb3)"><g clip-path="url(#cd95a7b5db)"><path fill="#6fcbc1" d="M 219.8125 49.875 L 285.296875 49.875 L 285.296875 115.359375 L 219.8125 115.359375 Z M 219.8125 49.875 " fill-opacity="1" fill-rule="nonzero"/></g></g><g clip-path="url(#a6e66261b2)"><g clip-path="url(#20989e143f)"><path fill="#7b7b7b" d="M 164.703125 59.050781 L 251.011719 59.050781 L 251.011719 145.359375 L 164.703125 145.359375 Z M 164.703125 59.050781 " fill-opacity="1" fill-rule="nonzero"/></g></g><g clip-path="url(#9fd4035b14)"><g clip-path="url(#9674495278)"><path fill="#7b7b7b" d="M 246.925781 53.421875 L 320.425781 53.421875 L 320.425781 126.921875 L 246.925781 126.921875 Z M 246.925781 53.421875 " fill-opacity="1" fill-rule="nonzero"/></g></g><g clip-path="url(#4426f0f241)"><g clip-path="url(#331fe4bf9c)"><path fill="#7b7b7b" d="M 361.125 172.742188 L 434.625 172.742188 L 434.625 246.242188 L 361.125 246.242188 Z M 361.125 172.742188 " fill-opacity="1" fill-rule="nonzero"/></g></g><g clip-path="url(#a32f3b63b8)"><g clip-path="url(#b34c092bd1)"><path fill="#e3933d" d="M 92.757812 124.148438 L 155.15625 124.148438 L 155.15625 186.546875 L 92.757812 186.546875 Z M 92.757812 124.148438 " fill-opacity="1" fill-rule="nonzero"/></g></g><g clip-path="url(#1e5eb5491f)"><g clip-path="url(#2b3a8d7668)"><path fill="#e3933d" d="M 111.613281 265.222656 L 174.011719 265.222656 L 174.011719 327.621094 L 111.613281 327.621094 Z M 111.613281 265.222656 " fill-opacity="1" fill-rule="nonzero"/></g></g><g clip-path="url(#d30a6e2982)"><g clip-path="url(#5859293434)"><path fill="#cdb4a0" d="M 188.613281 39.808594 L 251.011719 39.808594 L 251.011719 102.207031 L 188.613281 102.207031 Z M 188.613281 39.808594 " fill-opacity="1" fill-rule="nonzero"/></g></g><g clip-path="url(#7f8e50cbec)"><g clip-path="url(#3ae9aae0cb)"><path fill="#7b7b7b" d="M 136.296875 172.742188 L 174.011719 172.742188 L 174.011719 210.457031 L 136.296875 210.457031 Z M 136.296875 172.742188 " fill-opacity="1" fill-rule="nonzero"/></g></g><g clip-path="url(#6e2dd82998)"><g clip-path="url(#865e4c45cf)"><path fill="#e3933d" d="M 351.632812 90.285156 L 444.113281 90.285156 L 444.113281 182.765625 L 351.632812 182.765625 Z M 351.632812 90.285156 " fill-opacity="1" fill-rule="nonzero"/></g></g><g clip-path="url(#15b8b109be)"><g clip-path="url(#6640f08e82)"><path fill="#cdb4a0" d="M 246.925781 211.65625 L 339.40625 211.65625 L 339.40625 304.136719 L 246.925781 304.136719 Z M 246.925781 211.65625 " fill-opacity="1" fill-rule="nonzero"/></g></g><g clip-path="url(#9e4c6e0056)"><g clip-path="url(#edf226b631)"><path fill="#cdb4a0" d="M 18.683594 248.75 L 74.070312 248.75 L 74.070312 304.136719 L 18.683594 304.136719 Z M 18.683594 248.75 " fill-opacity="1" fill-rule="nonzero"/></g></g><g clip-path="url(#47c7d83fb2)"><g clip-path="url(#d64a462c76)"><path fill="#6fcbc1" d="M 328.796875 199.425781 L 384.183594 199.425781 L 384.183594 254.808594 L 328.796875 254.808594 Z M 328.796875 199.425781 " fill-opacity="1" fill-rule="nonzero"/></g></g><g clip-path="url(#77dd46bd69)"><g clip-path="url(#0c8bc4e2a3)"><path fill="#cdb4a0" d="M 220.070312 160.859375 L 263.882812 160.859375 L 263.882812 204.671875 L 220.070312 204.671875 Z M 220.070312 160.859375 " fill-opacity="1" fill-rule="nonzero"/></g></g><g clip-path="url(#f5735ffe2f)"><g clip-path="url(#5f6865e33c)"><path fill="#6fcbc1" d="M 166.84375 225.730469 L 225 225.730469 L 225 283.890625 L 166.84375 283.890625 Z M 166.84375 225.730469 " fill-opacity="1" fill-rule="nonzero"/></g></g><g clip-path="url(#74fbe6d3eb)"><g clip-path="url(#cc9f6337c6)"><path fill="#6fcbc1" d="M 356.488281 7.304688 L 399.058594 7.304688 L 399.058594 49.875 L 356.488281 49.875 Z M 356.488281 7.304688 " fill-opacity="1" fill-rule="nonzero"/></g></g><g clip-path="url(#d63c149f3b)"><g clip-path="url(#6d690fcac3)"><path fill="#cdb4a0" d="M 105.445312 3.558594 L 184.5 3.558594 L 184.5 82.617188 L 105.445312 82.617188 Z M 105.445312 3.558594 " fill-opacity="1" fill-rule="nonzero"/></g></g><g clip-path="url(#4a2c8af03c)"><g clip-path="url(#f8bccdd188)"><path fill="#6fcbc1" d="M 9.21875 43.929688 L 101.699219 43.929688 L 101.699219 136.410156 L 9.21875 136.410156 Z M 9.21875 43.929688 " fill-opacity="1" fill-rule="nonzero"/></g></g></svg>